<svg id="Layer_1" data-name="Layer 1" xmlns="http://www.w3.org/2000/svg" viewBox="0 0 862.94 207.51"><defs><style>.cls-1,.cls-3{fill:#d1a486;}.cls-2{fill:none;stroke:#d1a486;}.cls-3{font-size:16.2px;font-family:Digital-7Italic, Digital-7 Italic;font-style:italic;}</style></defs><title>THINKBOX</title><path class="cls-1" d="M36.5,57.71l4.88-23H145.29l-4.89,23H103.1L81.83,159.17H54.29L75.55,57.71Z"/><path class="cls-1" d="M180.86,34.7,170.75,82.47h50.38L231.24,34.7h27.54L232.46,159.17H204.92l11.33-53.69H165.87l-11.33,53.69H127.17L153.32,34.7Z"/><path class="cls-2" d="M303,34.7l-26.32,110H249.33l26.16-110Z"/><path class="cls-2" d="M355.32,34.7l33.82,78.24h.35L407.27,34.7h25.11l-26.33,110H378.68L344.51,67.51h-.35l-17.78,77.17H300.93l26.15-110Z"/><path class="cls-1" d="M472.66,34.7,461.85,86.82h.35L518.68,34.7h36.26L495.15,86l38.17,73.22H502.47l-28.41-56-19,16.56-10.57,39.4H417.1L445.29,34.7Z"/><path class="cls-1" d="M627.66,49.7H583.59l-13.21-5.07,2.47-8.45h58.77L637,42.94Zm.31,49,2.69,3.39L619.26,141l-11.66,8.46-4-5.08L614,108.88Zm-7.05-13.52L631.34,49.7l7-5.07L645,53.09,633.64,92,629,95.35Z"/><path class="cls-1" d="M661.72,108.88l-10.4,35.5-7,5.08-6.7-8.46L649,102.12l4.67-3.39Zm39,42.26-9.34,6.77H651l-5.36-6.77,9.32-6.76h40.42Zm22.7-52.41,2.69,3.39L714.76,141l-11.66,8.46-4-5.08,10.39-35.5Zm-61.75,10.15-10.4,35.5-7,5.08-6.7-8.46L649,102.12l4.67-3.39Zm39,42.26-9.34,6.77H651l-5.36-6.77,9.32-6.76h40.42Zm22.7-52.41,2.69,3.39L714.76,141l-11.66,8.46-4-5.08,10.39-35.5Z"/><path class="cls-1" d="M783.23,95.35H775L762,42.94q5.67-6.76,16.69-6.76l9.86,41.08Zm2.68,3.38h8.26l12.93,52.41q-5.67,6.78-16.69,6.77L780.52,117Z"/><line class="cls-2" x1="36.5" y1="159.17" x2="765.74" y2="159.17"/><line class="cls-2" x1="778.37" y1="117.41" x2="765.74" y2="159.17"/><polygon class="cls-1" points="605.08 151.15 595.76 157.91 537.17 157.91 539.64 149.46 555.82 144.38 599.73 144.38 605.08 151.15"/><polygon class="cls-1" points="540.64 146.07 553.52 102.12 558.19 98.73 566.23 108.88 556.82 141 540.64 146.07"/><polygon class="cls-1" points="582.59 53.09 573.17 85.21 559.19 95.35 556.51 91.97 569.39 48.01 582.59 53.09"/><polygon class="cls-2" points="619.43 90.28 624.8 97.04 615.47 103.8 567.73 103.8 562.37 97.04 571.68 90.28 619.43 90.28"/><path class="cls-1" d="M776.66,117l-33.81,40.92q-11,0-12.71-6.77l43.65-52.41h8.26Z"/><path class="cls-1" d="M792.48,77.09l33.81-40.91q11,0,12.71,6.76L795.35,95.35h-8.26Z"/><polygon class="cls-2" points="654.68 95.35 652.01 91.97 663.39 53.09 675.05 44.63 679.08 49.7 668.67 85.21 654.68 95.35"/><polygon class="cls-2" points="723.16 49.7 682.76 49.7 677.38 42.94 686.72 36.18 727.12 36.18 732.48 42.94 723.16 49.7"/><polygon class="cls-2" points="716.42 85.21 726.83 49.7 733.82 44.63 740.53 53.09 729.13 91.97 724.46 95.35 716.42 85.21"/><text class="cls-3" transform="translate(249.33 181.17)">Think in / out of the box</text></svg>